<mxfile host="app.diagrams.net" agent="Mozilla/5.0 (Windows NT 10.0; Win64; x64) AppleWebKit/537.36 (KHTML, like Gecko) Chrome/132.0.0.0 Safari/537.36" version="26.0.4">
  <diagram name="Page-1" id="ePalOOnEhoVpAURSG324">
    <mxGraphModel dx="2062" dy="1112" grid="0" gridSize="10" guides="1" tooltips="1" connect="1" arrows="1" fold="1" page="0" pageScale="1" pageWidth="827" pageHeight="1169" math="0" shadow="0">
      <root>
        <mxCell id="0" />
        <mxCell id="1" parent="0" />
        <mxCell id="xlEux_evLQKR6wJW_xwB-1" value="" style="endArrow=none;html=1;rounded=0;fontSize=12;startSize=8;endSize=8;curved=1;entryX=0.5;entryY=1;entryDx=0;entryDy=0;" edge="1" parent="1" target="xlEux_evLQKR6wJW_xwB-4">
          <mxGeometry width="50" height="50" relative="1" as="geometry">
            <mxPoint x="-351" y="1132" as="sourcePoint" />
            <mxPoint x="-314.56" y="-109" as="targetPoint" />
          </mxGeometry>
        </mxCell>
        <mxCell id="xlEux_evLQKR6wJW_xwB-2" value="" style="endArrow=none;html=1;rounded=0;fontSize=12;startSize=8;endSize=8;curved=1;" edge="1" parent="1">
          <mxGeometry width="50" height="50" relative="1" as="geometry">
            <mxPoint x="-614" y="1126.2222222222222" as="sourcePoint" />
            <mxPoint x="-613.5599999999998" y="-116.99999999999977" as="targetPoint" />
          </mxGeometry>
        </mxCell>
        <mxCell id="xlEux_evLQKR6wJW_xwB-4" value="Telephone System" style="rounded=1;whiteSpace=wrap;html=1;" vertex="1" parent="1">
          <mxGeometry x="-411" y="-183" width="120" height="60" as="geometry" />
        </mxCell>
        <mxCell id="xlEux_evLQKR6wJW_xwB-5" value="" style="endArrow=none;html=1;rounded=0;fontSize=12;startSize=8;endSize=8;curved=1;" edge="1" parent="1">
          <mxGeometry width="50" height="50" relative="1" as="geometry">
            <mxPoint x="162" y="1126" as="sourcePoint" />
            <mxPoint x="162.44" y="-119" as="targetPoint" />
          </mxGeometry>
        </mxCell>
        <mxCell id="xlEux_evLQKR6wJW_xwB-6" value="" style="endArrow=none;html=1;rounded=0;fontSize=12;startSize=8;endSize=8;curved=1;" edge="1" parent="1">
          <mxGeometry width="50" height="50" relative="1" as="geometry">
            <mxPoint x="-89" y="1129" as="sourcePoint" />
            <mxPoint x="-88.56" y="-117" as="targetPoint" />
          </mxGeometry>
        </mxCell>
        <mxCell id="xlEux_evLQKR6wJW_xwB-7" value="" style="endArrow=none;html=1;rounded=0;fontSize=12;startSize=8;endSize=8;curved=1;entryX=0.5;entryY=1;entryDx=0;entryDy=0;" edge="1" parent="1" target="xlEux_evLQKR6wJW_xwB-8">
          <mxGeometry width="50" height="50" relative="1" as="geometry">
            <mxPoint x="417" y="1103" as="sourcePoint" />
            <mxPoint x="416.44" y="-109" as="targetPoint" />
          </mxGeometry>
        </mxCell>
        <mxCell id="xlEux_evLQKR6wJW_xwB-8" value="Voicemail System" style="rounded=1;whiteSpace=wrap;html=1;" vertex="1" parent="1">
          <mxGeometry x="357" y="-189" width="120" height="60" as="geometry" />
        </mxCell>
        <mxCell id="xlEux_evLQKR6wJW_xwB-9" value="Caller" style="shape=umlActor;verticalLabelPosition=bottom;verticalAlign=top;html=1;" vertex="1" parent="1">
          <mxGeometry x="-628" y="-203" width="30" height="60" as="geometry" />
        </mxCell>
        <mxCell id="xlEux_evLQKR6wJW_xwB-10" value="Receiver 1" style="shape=umlActor;verticalLabelPosition=bottom;verticalAlign=top;html=1;" vertex="1" parent="1">
          <mxGeometry x="-103" y="-203" width="30" height="60" as="geometry" />
        </mxCell>
        <mxCell id="xlEux_evLQKR6wJW_xwB-11" value="Receiver 2" style="shape=umlActor;verticalLabelPosition=bottom;verticalAlign=top;html=1;" vertex="1" parent="1">
          <mxGeometry x="148" y="-203" width="30" height="60" as="geometry" />
        </mxCell>
        <mxCell id="xlEux_evLQKR6wJW_xwB-17" value="" style="endArrow=classic;html=1;rounded=0;" edge="1" parent="1">
          <mxGeometry width="50" height="50" relative="1" as="geometry">
            <mxPoint x="-613" y="-70" as="sourcePoint" />
            <mxPoint x="-349" y="-70" as="targetPoint" />
          </mxGeometry>
        </mxCell>
        <mxCell id="xlEux_evLQKR6wJW_xwB-18" value="&lt;font style=&quot;font-size: 12px;&quot;&gt;Dial Number&lt;/font&gt;" style="edgeLabel;html=1;align=center;verticalAlign=middle;resizable=0;points=[];" vertex="1" connectable="0" parent="xlEux_evLQKR6wJW_xwB-17">
          <mxGeometry x="-0.0826" y="3" relative="1" as="geometry">
            <mxPoint as="offset" />
          </mxGeometry>
        </mxCell>
        <mxCell id="xlEux_evLQKR6wJW_xwB-19" value="" style="endArrow=classic;html=1;rounded=0;" edge="1" parent="1">
          <mxGeometry width="50" height="50" relative="1" as="geometry">
            <mxPoint x="-350" y="-53" as="sourcePoint" />
            <mxPoint x="-86" y="-53" as="targetPoint" />
          </mxGeometry>
        </mxCell>
        <mxCell id="xlEux_evLQKR6wJW_xwB-21" value="Validate Number" style="edgeLabel;html=1;align=center;verticalAlign=middle;resizable=0;points=[];" vertex="1" connectable="0" parent="xlEux_evLQKR6wJW_xwB-19">
          <mxGeometry x="-0.1061" y="1" relative="1" as="geometry">
            <mxPoint as="offset" />
          </mxGeometry>
        </mxCell>
        <mxCell id="xlEux_evLQKR6wJW_xwB-22" value="" style="endArrow=classic;html=1;rounded=0;" edge="1" parent="1">
          <mxGeometry width="50" height="50" relative="1" as="geometry">
            <mxPoint x="-93" y="-11" as="sourcePoint" />
            <mxPoint x="-349" y="-11" as="targetPoint" />
          </mxGeometry>
        </mxCell>
        <mxCell id="xlEux_evLQKR6wJW_xwB-23" value="Answer Call" style="edgeLabel;html=1;align=center;verticalAlign=middle;resizable=0;points=[];" vertex="1" connectable="0" parent="xlEux_evLQKR6wJW_xwB-22">
          <mxGeometry x="-0.1061" y="1" relative="1" as="geometry">
            <mxPoint as="offset" />
          </mxGeometry>
        </mxCell>
        <mxCell id="xlEux_evLQKR6wJW_xwB-24" value="" style="endArrow=classic;html=1;rounded=0;" edge="1" parent="1">
          <mxGeometry width="50" height="50" relative="1" as="geometry">
            <mxPoint x="-354" y="20" as="sourcePoint" />
            <mxPoint x="-610" y="20" as="targetPoint" />
          </mxGeometry>
        </mxCell>
        <mxCell id="xlEux_evLQKR6wJW_xwB-25" value="Eastablish Connection" style="edgeLabel;html=1;align=center;verticalAlign=middle;resizable=0;points=[];" vertex="1" connectable="0" parent="xlEux_evLQKR6wJW_xwB-24">
          <mxGeometry x="-0.1061" y="1" relative="1" as="geometry">
            <mxPoint as="offset" />
          </mxGeometry>
        </mxCell>
        <mxCell id="xlEux_evLQKR6wJW_xwB-26" value="" style="endArrow=classic;html=1;rounded=0;" edge="1" parent="1">
          <mxGeometry width="50" height="50" relative="1" as="geometry">
            <mxPoint x="-616" y="119" as="sourcePoint" />
            <mxPoint x="-352" y="119" as="targetPoint" />
          </mxGeometry>
        </mxCell>
        <mxCell id="xlEux_evLQKR6wJW_xwB-27" value="&lt;font style=&quot;font-size: 12px;&quot;&gt;Dial Number&lt;/font&gt;" style="edgeLabel;html=1;align=center;verticalAlign=middle;resizable=0;points=[];" vertex="1" connectable="0" parent="xlEux_evLQKR6wJW_xwB-26">
          <mxGeometry x="-0.0826" y="3" relative="1" as="geometry">
            <mxPoint as="offset" />
          </mxGeometry>
        </mxCell>
        <mxCell id="xlEux_evLQKR6wJW_xwB-28" value="" style="endArrow=classic;html=1;rounded=0;" edge="1" parent="1">
          <mxGeometry width="50" height="50" relative="1" as="geometry">
            <mxPoint x="-353" y="157" as="sourcePoint" />
            <mxPoint x="-89" y="157" as="targetPoint" />
          </mxGeometry>
        </mxCell>
        <mxCell id="xlEux_evLQKR6wJW_xwB-29" value="Validate Number" style="edgeLabel;html=1;align=center;verticalAlign=middle;resizable=0;points=[];" vertex="1" connectable="0" parent="xlEux_evLQKR6wJW_xwB-28">
          <mxGeometry x="-0.1061" y="1" relative="1" as="geometry">
            <mxPoint as="offset" />
          </mxGeometry>
        </mxCell>
        <mxCell id="xlEux_evLQKR6wJW_xwB-30" value="" style="endArrow=classic;html=1;rounded=0;" edge="1" parent="1">
          <mxGeometry width="50" height="50" relative="1" as="geometry">
            <mxPoint x="-93" y="187" as="sourcePoint" />
            <mxPoint x="-349" y="187" as="targetPoint" />
          </mxGeometry>
        </mxCell>
        <mxCell id="xlEux_evLQKR6wJW_xwB-31" value="Unavailable" style="edgeLabel;html=1;align=center;verticalAlign=middle;resizable=0;points=[];" vertex="1" connectable="0" parent="xlEux_evLQKR6wJW_xwB-30">
          <mxGeometry x="-0.1061" y="1" relative="1" as="geometry">
            <mxPoint as="offset" />
          </mxGeometry>
        </mxCell>
        <mxCell id="xlEux_evLQKR6wJW_xwB-32" value="" style="endArrow=classic;html=1;rounded=0;" edge="1" parent="1">
          <mxGeometry width="50" height="50" relative="1" as="geometry">
            <mxPoint x="-352" y="231" as="sourcePoint" />
            <mxPoint x="158" y="231" as="targetPoint" />
          </mxGeometry>
        </mxCell>
        <mxCell id="xlEux_evLQKR6wJW_xwB-33" value="Call Forwarded to Receiver 2" style="edgeLabel;html=1;align=center;verticalAlign=middle;resizable=0;points=[];" vertex="1" connectable="0" parent="xlEux_evLQKR6wJW_xwB-32">
          <mxGeometry x="-0.1061" y="1" relative="1" as="geometry">
            <mxPoint as="offset" />
          </mxGeometry>
        </mxCell>
        <mxCell id="xlEux_evLQKR6wJW_xwB-34" value="" style="endArrow=classic;html=1;rounded=0;" edge="1" parent="1">
          <mxGeometry width="50" height="50" relative="1" as="geometry">
            <mxPoint x="159" y="264" as="sourcePoint" />
            <mxPoint x="-350" y="264" as="targetPoint" />
          </mxGeometry>
        </mxCell>
        <mxCell id="xlEux_evLQKR6wJW_xwB-35" value="Answer Call" style="edgeLabel;html=1;align=center;verticalAlign=middle;resizable=0;points=[];" vertex="1" connectable="0" parent="xlEux_evLQKR6wJW_xwB-34">
          <mxGeometry x="-0.1061" y="1" relative="1" as="geometry">
            <mxPoint as="offset" />
          </mxGeometry>
        </mxCell>
        <mxCell id="xlEux_evLQKR6wJW_xwB-36" value="" style="endArrow=classic;html=1;rounded=0;" edge="1" parent="1">
          <mxGeometry width="50" height="50" relative="1" as="geometry">
            <mxPoint x="-354" y="289" as="sourcePoint" />
            <mxPoint x="-610" y="289" as="targetPoint" />
          </mxGeometry>
        </mxCell>
        <mxCell id="xlEux_evLQKR6wJW_xwB-37" value="Eastablish Connection" style="edgeLabel;html=1;align=center;verticalAlign=middle;resizable=0;points=[];" vertex="1" connectable="0" parent="xlEux_evLQKR6wJW_xwB-36">
          <mxGeometry x="-0.1061" y="1" relative="1" as="geometry">
            <mxPoint as="offset" />
          </mxGeometry>
        </mxCell>
        <mxCell id="xlEux_evLQKR6wJW_xwB-38" value="" style="endArrow=classic;html=1;rounded=0;" edge="1" parent="1">
          <mxGeometry width="50" height="50" relative="1" as="geometry">
            <mxPoint x="-613" y="378" as="sourcePoint" />
            <mxPoint x="-349" y="378" as="targetPoint" />
          </mxGeometry>
        </mxCell>
        <mxCell id="xlEux_evLQKR6wJW_xwB-39" value="&lt;font style=&quot;font-size: 12px;&quot;&gt;Dial Number&lt;/font&gt;" style="edgeLabel;html=1;align=center;verticalAlign=middle;resizable=0;points=[];" vertex="1" connectable="0" parent="xlEux_evLQKR6wJW_xwB-38">
          <mxGeometry x="-0.0826" y="3" relative="1" as="geometry">
            <mxPoint as="offset" />
          </mxGeometry>
        </mxCell>
        <mxCell id="xlEux_evLQKR6wJW_xwB-40" value="" style="endArrow=classic;html=1;rounded=0;" edge="1" parent="1">
          <mxGeometry width="50" height="50" relative="1" as="geometry">
            <mxPoint x="-351" y="415" as="sourcePoint" />
            <mxPoint x="-87" y="415" as="targetPoint" />
          </mxGeometry>
        </mxCell>
        <mxCell id="xlEux_evLQKR6wJW_xwB-41" value="No Answer" style="edgeLabel;html=1;align=center;verticalAlign=middle;resizable=0;points=[];" vertex="1" connectable="0" parent="xlEux_evLQKR6wJW_xwB-40">
          <mxGeometry x="-0.1061" y="1" relative="1" as="geometry">
            <mxPoint as="offset" />
          </mxGeometry>
        </mxCell>
        <mxCell id="xlEux_evLQKR6wJW_xwB-42" value="" style="endArrow=classic;html=1;rounded=0;" edge="1" parent="1">
          <mxGeometry width="50" height="50" relative="1" as="geometry">
            <mxPoint x="-349" y="441" as="sourcePoint" />
            <mxPoint x="418" y="441" as="targetPoint" />
          </mxGeometry>
        </mxCell>
        <mxCell id="xlEux_evLQKR6wJW_xwB-43" value="Forward to Voicemail" style="edgeLabel;html=1;align=center;verticalAlign=middle;resizable=0;points=[];" vertex="1" connectable="0" parent="xlEux_evLQKR6wJW_xwB-42">
          <mxGeometry x="-0.1061" y="1" relative="1" as="geometry">
            <mxPoint as="offset" />
          </mxGeometry>
        </mxCell>
        <mxCell id="xlEux_evLQKR6wJW_xwB-44" value="" style="endArrow=classic;html=1;rounded=0;" edge="1" parent="1">
          <mxGeometry width="50" height="50" relative="1" as="geometry">
            <mxPoint x="415" y="472" as="sourcePoint" />
            <mxPoint x="-611" y="469" as="targetPoint" />
          </mxGeometry>
        </mxCell>
        <mxCell id="xlEux_evLQKR6wJW_xwB-45" value="Record Voicemail" style="edgeLabel;html=1;align=center;verticalAlign=middle;resizable=0;points=[];" vertex="1" connectable="0" parent="xlEux_evLQKR6wJW_xwB-44">
          <mxGeometry x="-0.1061" y="1" relative="1" as="geometry">
            <mxPoint as="offset" />
          </mxGeometry>
        </mxCell>
        <mxCell id="xlEux_evLQKR6wJW_xwB-46" value="" style="endArrow=classic;html=1;rounded=0;" edge="1" parent="1">
          <mxGeometry width="50" height="50" relative="1" as="geometry">
            <mxPoint x="-611" y="558" as="sourcePoint" />
            <mxPoint x="-347" y="558" as="targetPoint" />
          </mxGeometry>
        </mxCell>
        <mxCell id="xlEux_evLQKR6wJW_xwB-47" value="Request Callback" style="edgeLabel;html=1;align=center;verticalAlign=middle;resizable=0;points=[];" vertex="1" connectable="0" parent="xlEux_evLQKR6wJW_xwB-46">
          <mxGeometry x="-0.0826" y="3" relative="1" as="geometry">
            <mxPoint as="offset" />
          </mxGeometry>
        </mxCell>
        <mxCell id="xlEux_evLQKR6wJW_xwB-48" value="" style="endArrow=classic;html=1;rounded=0;" edge="1" parent="1">
          <mxGeometry width="50" height="50" relative="1" as="geometry">
            <mxPoint x="-349" y="586" as="sourcePoint" />
            <mxPoint x="-85" y="586" as="targetPoint" />
          </mxGeometry>
        </mxCell>
        <mxCell id="xlEux_evLQKR6wJW_xwB-49" value="Notify when Available" style="edgeLabel;html=1;align=center;verticalAlign=middle;resizable=0;points=[];" vertex="1" connectable="0" parent="xlEux_evLQKR6wJW_xwB-48">
          <mxGeometry x="-0.1061" y="1" relative="1" as="geometry">
            <mxPoint as="offset" />
          </mxGeometry>
        </mxCell>
        <mxCell id="xlEux_evLQKR6wJW_xwB-50" value="" style="endArrow=classic;html=1;rounded=0;" edge="1" parent="1">
          <mxGeometry width="50" height="50" relative="1" as="geometry">
            <mxPoint x="-93" y="617" as="sourcePoint" />
            <mxPoint x="-349" y="617" as="targetPoint" />
          </mxGeometry>
        </mxCell>
        <mxCell id="xlEux_evLQKR6wJW_xwB-51" value="Becomes Available" style="edgeLabel;html=1;align=center;verticalAlign=middle;resizable=0;points=[];" vertex="1" connectable="0" parent="xlEux_evLQKR6wJW_xwB-50">
          <mxGeometry x="-0.1061" y="1" relative="1" as="geometry">
            <mxPoint as="offset" />
          </mxGeometry>
        </mxCell>
        <mxCell id="xlEux_evLQKR6wJW_xwB-52" value="" style="endArrow=classic;html=1;rounded=0;" edge="1" parent="1">
          <mxGeometry width="50" height="50" relative="1" as="geometry">
            <mxPoint x="-354" y="641" as="sourcePoint" />
            <mxPoint x="-610" y="641" as="targetPoint" />
          </mxGeometry>
        </mxCell>
        <mxCell id="xlEux_evLQKR6wJW_xwB-53" value="Callback Initiated" style="edgeLabel;html=1;align=center;verticalAlign=middle;resizable=0;points=[];" vertex="1" connectable="0" parent="xlEux_evLQKR6wJW_xwB-52">
          <mxGeometry x="-0.1061" y="1" relative="1" as="geometry">
            <mxPoint as="offset" />
          </mxGeometry>
        </mxCell>
        <mxCell id="xlEux_evLQKR6wJW_xwB-54" value="" style="endArrow=classic;html=1;rounded=0;" edge="1" parent="1">
          <mxGeometry width="50" height="50" relative="1" as="geometry">
            <mxPoint x="-614" y="748" as="sourcePoint" />
            <mxPoint x="-350" y="748" as="targetPoint" />
          </mxGeometry>
        </mxCell>
        <mxCell id="xlEux_evLQKR6wJW_xwB-55" value="&lt;font style=&quot;font-size: 12px;&quot;&gt;Dial Number&lt;/font&gt;" style="edgeLabel;html=1;align=center;verticalAlign=middle;resizable=0;points=[];" vertex="1" connectable="0" parent="xlEux_evLQKR6wJW_xwB-54">
          <mxGeometry x="-0.0826" y="3" relative="1" as="geometry">
            <mxPoint as="offset" />
          </mxGeometry>
        </mxCell>
        <mxCell id="xlEux_evLQKR6wJW_xwB-56" value="" style="endArrow=classic;html=1;rounded=0;" edge="1" parent="1">
          <mxGeometry width="50" height="50" relative="1" as="geometry">
            <mxPoint x="-88" y="771" as="sourcePoint" />
            <mxPoint x="-352" y="771" as="targetPoint" />
          </mxGeometry>
        </mxCell>
        <mxCell id="xlEux_evLQKR6wJW_xwB-57" value="Answer Call" style="edgeLabel;html=1;align=center;verticalAlign=middle;resizable=0;points=[];" vertex="1" connectable="0" parent="xlEux_evLQKR6wJW_xwB-56">
          <mxGeometry x="-0.0826" y="3" relative="1" as="geometry">
            <mxPoint as="offset" />
          </mxGeometry>
        </mxCell>
        <mxCell id="xlEux_evLQKR6wJW_xwB-58" value="" style="endArrow=classic;html=1;rounded=0;" edge="1" parent="1">
          <mxGeometry width="50" height="50" relative="1" as="geometry">
            <mxPoint x="-95" y="805" as="sourcePoint" />
            <mxPoint x="-351" y="805" as="targetPoint" />
          </mxGeometry>
        </mxCell>
        <mxCell id="xlEux_evLQKR6wJW_xwB-59" value="Hold Call" style="edgeLabel;html=1;align=center;verticalAlign=middle;resizable=0;points=[];" vertex="1" connectable="0" parent="xlEux_evLQKR6wJW_xwB-58">
          <mxGeometry x="-0.1061" y="1" relative="1" as="geometry">
            <mxPoint as="offset" />
          </mxGeometry>
        </mxCell>
        <mxCell id="xlEux_evLQKR6wJW_xwB-60" value="" style="endArrow=classic;html=1;rounded=0;" edge="1" parent="1">
          <mxGeometry width="50" height="50" relative="1" as="geometry">
            <mxPoint x="-356" y="831" as="sourcePoint" />
            <mxPoint x="-612" y="831" as="targetPoint" />
          </mxGeometry>
        </mxCell>
        <mxCell id="xlEux_evLQKR6wJW_xwB-61" value="Play Hold Music" style="edgeLabel;html=1;align=center;verticalAlign=middle;resizable=0;points=[];" vertex="1" connectable="0" parent="xlEux_evLQKR6wJW_xwB-60">
          <mxGeometry x="-0.1061" y="1" relative="1" as="geometry">
            <mxPoint as="offset" />
          </mxGeometry>
        </mxCell>
        <mxCell id="xlEux_evLQKR6wJW_xwB-62" value="" style="endArrow=classic;html=1;rounded=0;" edge="1" parent="1">
          <mxGeometry width="50" height="50" relative="1" as="geometry">
            <mxPoint x="-615" y="927" as="sourcePoint" />
            <mxPoint x="-351" y="927" as="targetPoint" />
          </mxGeometry>
        </mxCell>
        <mxCell id="xlEux_evLQKR6wJW_xwB-63" value="&lt;font style=&quot;font-size: 12px;&quot;&gt;Add Receiver 2&lt;/font&gt;" style="edgeLabel;html=1;align=center;verticalAlign=middle;resizable=0;points=[];" vertex="1" connectable="0" parent="xlEux_evLQKR6wJW_xwB-62">
          <mxGeometry x="-0.0826" y="3" relative="1" as="geometry">
            <mxPoint as="offset" />
          </mxGeometry>
        </mxCell>
        <mxCell id="xlEux_evLQKR6wJW_xwB-64" value="" style="endArrow=classic;html=1;rounded=0;" edge="1" parent="1">
          <mxGeometry width="50" height="50" relative="1" as="geometry">
            <mxPoint x="-353" y="957" as="sourcePoint" />
            <mxPoint x="159" y="957" as="targetPoint" />
          </mxGeometry>
        </mxCell>
        <mxCell id="xlEux_evLQKR6wJW_xwB-65" value="&lt;font style=&quot;font-size: 12px;&quot;&gt;Dial Number&lt;/font&gt;" style="edgeLabel;html=1;align=center;verticalAlign=middle;resizable=0;points=[];" vertex="1" connectable="0" parent="xlEux_evLQKR6wJW_xwB-64">
          <mxGeometry x="-0.0826" y="3" relative="1" as="geometry">
            <mxPoint as="offset" />
          </mxGeometry>
        </mxCell>
        <mxCell id="xlEux_evLQKR6wJW_xwB-66" value="" style="endArrow=classic;html=1;rounded=0;" edge="1" parent="1">
          <mxGeometry width="50" height="50" relative="1" as="geometry">
            <mxPoint x="161" y="991" as="sourcePoint" />
            <mxPoint x="-351" y="989" as="targetPoint" />
          </mxGeometry>
        </mxCell>
        <mxCell id="xlEux_evLQKR6wJW_xwB-67" value="Answer Call" style="edgeLabel;html=1;align=center;verticalAlign=middle;resizable=0;points=[];" vertex="1" connectable="0" parent="xlEux_evLQKR6wJW_xwB-66">
          <mxGeometry x="-0.0826" y="3" relative="1" as="geometry">
            <mxPoint as="offset" />
          </mxGeometry>
        </mxCell>
        <mxCell id="xlEux_evLQKR6wJW_xwB-68" value="" style="endArrow=classic;html=1;rounded=0;" edge="1" parent="1">
          <mxGeometry width="50" height="50" relative="1" as="geometry">
            <mxPoint x="-348" y="1042" as="sourcePoint" />
            <mxPoint x="164" y="1042" as="targetPoint" />
          </mxGeometry>
        </mxCell>
        <mxCell id="xlEux_evLQKR6wJW_xwB-69" value="&lt;font style=&quot;font-size: 12px;&quot;&gt;Conference Call Established&lt;/font&gt;" style="edgeLabel;html=1;align=center;verticalAlign=middle;resizable=0;points=[];" vertex="1" connectable="0" parent="xlEux_evLQKR6wJW_xwB-68">
          <mxGeometry x="-0.0826" y="3" relative="1" as="geometry">
            <mxPoint as="offset" />
          </mxGeometry>
        </mxCell>
      </root>
    </mxGraphModel>
  </diagram>
</mxfile>
